<?xml version="1.0" encoding="UTF-8"?>
<svg version="1.1" xmlns="http://www.w3.org/2000/svg" width="113" height="54">
<path d="M0 0 C0.66 0.33 1.32 0.66 2 1 C1.25 2.9375 1.25 2.9375 0 5 C-2.078125 5.62890625 -2.078125 5.62890625 -4 6 C-4.22736013 10.50708025 -4.17788191 14.62575133 -3 19 C-0.01214818 21.86569093 3.17232428 23.4786552 7 25 C7 21.7 7 18.4 7 15 C7.33 15 7.66 15 8 15 C8.06058594 15.73605469 8.12117188 16.47210937 8.18359375 17.23046875 C8.26738281 18.20628906 8.35117187 19.18210937 8.4375 20.1875 C8.51871094 21.15042969 8.59992187 22.11335938 8.68359375 23.10546875 C8.97666151 25.78649602 9.42703754 28.3662986 10 31 C9.34 31 8.68 31 8 31 C8 36.28 8 41.56 8 47 C9.98 47 11.96 47 14 47 C14 47.99 14 48.98 14 50 C12.02 50 10.04 50 8 50 C7.67 50.99 7.34 51.98 7 53 C7 52.01 7 51.02 7 50 C-0.26 50 -7.52 50 -15 50 C-15 51.32 -15 52.64 -15 54 C-15.66 54 -16.32 54 -17 54 C-17 52.68 -17 51.36 -17 50 C-21.95 50 -26.9 50 -32 50 C-32.33 50.99 -32.66 51.98 -33 53 C-33 52.01 -33 51.02 -33 50 C-33.99 49.67 -34.98 49.34 -36 49 C-36 48.34 -36 47.68 -36 47 C-35.01 47 -34.02 47 -33 47 C-33.33 43.04 -33.66 39.08 -34 35 C-35.485 35.495 -35.485 35.495 -37 36 C-36.625 33.5625 -36.625 33.5625 -36 31 C-35.34 30.67 -34.68 30.34 -34 30 C-33.68758629 27.45058627 -33.48696579 24.99638487 -33.375 22.4375 C-33.33632813 21.72658203 -33.29765625 21.01566406 -33.2578125 20.28320312 C-33.16328217 18.52257575 -33.08054183 16.76132272 -33 15 C-32.67 15 -32.34 15 -32 15 C-32 19.62 -32 24.24 -32 29 C-30.35 28.01 -28.7 27.02 -27 26 C-26.34 26 -25.68 26 -25 26 C-25.33 24.02 -25.66 22.04 -26 20 C-27.32 20.33 -28.64 20.66 -30 21 C-30 19.68 -30 18.36 -30 17 C-29.33991943 16.62713867 -28.67983887 16.25427734 -27.99975586 15.87011719 C-24.97890376 14.16358866 -21.95820074 12.45679643 -18.9375 10.75 C-17.89916016 10.16347656 -16.86082031 9.57695312 -15.79101562 8.97265625 C-14.26831055 8.11220703 -14.26831055 8.11220703 -12.71484375 7.234375 C-11.7285498 6.67943359 -10.74225586 6.12449219 -9.72607422 5.55273438 C-8.06059429 4.60409992 -6.40351407 3.64026029 -4.76220703 2.65039062 C-3.2061572 1.71280706 -1.60752537 0.84629558 0 0 Z M-9 9 C-9 11.64 -9 14.28 -9 17 C-8.34 17 -7.68 17 -7 17 C-7 14.36 -7 11.72 -7 9 C-7.66 9 -8.32 9 -9 9 Z M-11 10 C-11 11.65 -11 13.3 -11 15 C-10.67 15 -10.34 15 -10 15 C-10 13.35 -10 11.7 -10 10 C-10.33 10 -10.66 10 -11 10 Z M-17.625 14 C-18.73875 14.66 -19.8525 15.32 -21 16 C-21 19.3 -21 22.6 -21 26 C-19.68 26.33 -18.36 26.66 -17 27 C-17 23.7 -17 20.4 -17 17 C-16.34 17 -15.68 17 -15 17 C-15 26.9 -15 36.8 -15 47 C-9.39 47 -3.78 47 2 47 C2 40.07 2 33.14 2 26 C0.02 25.34 -1.96 24.68 -4 24 C-4 30.27 -4 36.54 -4 43 C-6.64 43 -9.28 43 -12 43 C-12 32.77 -12 22.54 -12 12 C-14.46301423 12 -15.52063278 12.75296757 -17.625 14 Z M-9 21 C-9 27.27 -9 33.54 -9 40 C-8.34 40 -7.68 40 -7 40 C-7 33.73 -7 27.46 -7 21 C-7.66 21 -8.32 21 -9 21 Z M-27 30 C-27 33.3 -27 36.6 -27 40 C-24.36 40 -21.72 40 -19 40 C-19 36.7 -19 33.4 -19 30 C-23.10223585 28.98459888 -23.10223585 28.98459888 -27 30 Z M6 29 C6 34.94 6 40.88 6 47 C6.33 47 6.66 47 7 47 C7 41.06 7 35.12 7 29 C6.67 29 6.34 29 6 29 Z M-32 33 C-32 37.62 -32 42.24 -32 47 C-29.69 47 -27.38 47 -25 47 C-25 45.68 -25 44.36 -25 43 C-26.98 43 -28.96 43 -31 43 C-31 39.7 -31 36.4 -31 33 C-31.33 33 -31.66 33 -32 33 Z M-21 43 C-21 44.32 -21 45.64 -21 47 C-19.68 47 -18.36 47 -17 47 C-17 45.68 -17 44.36 -17 43 C-18.32 43 -19.64 43 -21 43 Z M-32 48 C-32 48.33 -32 48.66 -32 49 C-29.69 49 -27.38 49 -25 49 C-25 48.67 -25 48.34 -25 48 C-27.31 48 -29.62 48 -32 48 Z " fill="#C8A27D" transform="translate(37,0)"/>
<path d="M0 0 C0.87495117 0.00193359 1.74990234 0.00386719 2.65136719 0.00585938 C8.8810852 0.04743703 14.99623605 0.39661601 21.1875 1.125 C21.1875 6.405 21.1875 11.685 21.1875 17.125 C14.14267985 17.94179074 7.27717304 18.24630619 0.1875 18.125 C0.4040625 17.27615234 0.4040625 17.27615234 0.625 16.41015625 C0.810625 15.67667969 0.99625 14.94320312 1.1875 14.1875 C1.373125 13.45660156 1.55875 12.72570312 1.75 11.97265625 C2.22590252 10.27927575 2.22590252 10.27927575 2.1875 9.125 C0.87483482 7.77131404 -0.45817325 6.43700404 -1.8125 5.125 C-1.4825 8.755 -1.1525 12.385 -0.8125 16.125 C-1.4725 14.805 -2.1325 13.485 -2.8125 12.125 C-3.8025 12.125 -4.7925 12.125 -5.8125 12.125 C-5.15664811 15.73492379 -5.15664811 15.73492379 -3.8125 19.125 C-13.22252278 19.30951025 -13.22252278 19.30951025 -17.8125 18.125 C-17.503125 17.50625 -17.19375 16.8875 -16.875 16.25 C-15.4085722 11.93697706 -15.14630974 7.6490004 -14.8125 3.125 C-15.8025 3.125 -16.7925 3.125 -17.8125 3.125 C-17.8125 2.465 -17.8125 1.805 -17.8125 1.125 C-11.83353275 0.25608434 -6.03792217 -0.0323254 0 0 Z M9.1875 1.125 C7.94203595 3.61592811 8.4107422 4.53580733 9.1875 7.125 C9.8475 7.125 10.5075 7.125 11.1875 7.125 C11.5175 5.475 11.8475 3.825 12.1875 2.125 C11.1975 1.795 10.2075 1.465 9.1875 1.125 Z M-7.8125 5.125 C-7.4825 5.785 -7.1525 6.445 -6.8125 7.125 C-5.8225 6.795 -4.8325 6.465 -3.8125 6.125 C-5.1325 5.795 -6.4525 5.465 -7.8125 5.125 Z M9.1875 12.125 C9.1875 13.775 9.1875 15.425 9.1875 17.125 C10.1775 16.465 11.1675 15.805 12.1875 15.125 C12.1875 14.135 12.1875 13.145 12.1875 12.125 C11.1975 12.125 10.2075 12.125 9.1875 12.125 Z " fill="#FEFEFE" transform="translate(86.8125,17.875)"/>
<path d="M0 0 C2.08304538 -0.05418326 4.16649768 -0.09287551 6.25 -0.125 C7.99023438 -0.15980469 7.99023438 -0.15980469 9.765625 -0.1953125 C12.82786046 -0.0103949 14.44202751 0.39176977 17 2 C16.67 3.98 16.34 5.96 16 8 C16.66 8 17.32 8 18 8 C18.85893439 10.40501629 19.13390432 11.61575282 18.28125 14.0625 C17 16 17 16 15.1171875 16.828125 C9.98123135 17.79447215 5.22780367 18.19010195 0 18 C0.33 17.34 0.66 16.68 1 16 C1.66 16 2.32 16 3 16 C2.69075786 13.89535207 2.3774944 11.7912947 2.0625 9.6875 C1.88847656 8.51574219 1.71445312 7.34398437 1.53515625 6.13671875 C1.07906969 2.98358597 1.07906969 2.98358597 0 0 Z M8 9 C7.67 10.32 7.34 11.64 7 13 C7.99 12.01 8.98 11.02 10 10 C9.34 9.67 8.68 9.34 8 9 Z " fill="#FEFEFE" transform="translate(51,19)"/>
<path d="M0 0 C0.33 0 0.66 0 1 0 C1 2.64 1 5.28 1 8 C2.98 8 4.96 8 7 8 C7 8.99 7 9.98 7 11 C5.02 11 3.04 11 1 11 C0.67 11.99 0.34 12.98 0 14 C0 13.01 0 12.02 0 11 C-0.99 10.67 -1.98 10.34 -3 10 C-3 9.34 -3 8.68 -3 8 C-2.01 8 -1.02 8 0 8 C0 5.36 0 2.72 0 0 Z " fill="#BA8E6E" transform="translate(4,39)"/>
<path d="M0 0 C2.33944736 0.28730055 4.6739143 0.61936779 7 1 C7 1.99 7 2.98 7 4 C5.02 4 3.04 4 1 4 C0.67 4.99 0.34 5.98 0 7 C-0.38133299 5.0085944 -0.71325582 3.00720923 -1 1 C-0.67 0.67 -0.34 0.34 0 0 Z " fill="#BA8D6D" transform="translate(44,46)"/>
<path d="M0 0 C0.66 0.33 1.32 0.66 2 1 C1.34 2.32 0.68 3.64 0 5 C-1.32 4.67 -2.64 4.34 -4 4 C-4 3.34 -4 2.68 -4 2 C-2.125 0.9375 -2.125 0.9375 0 0 Z " fill="#D9BB9E" transform="translate(37,0)"/>
<path d="M0 0 C0.99 0.33 1.98 0.66 3 1 C2.67 1.99 2.34 2.98 2 4 C-0.0625 4.6875 -0.0625 4.6875 -2 5 C-2 3.68 -2 2.36 -2 1 C-1.34 0.67 -0.68 0.34 0 0 Z " fill="#CCA989" transform="translate(9,16)"/>
</svg>
